<?xml version="1.0" encoding="utf-8"?>
<!-- Generator: Adobe Illustrator 22.1.0, SVG Export Plug-In . SVG Version: 6.00 Build 0)  -->
<svg version="1.1" id="Layer_1" xmlns="http://www.w3.org/2000/svg" xmlns:xlink="http://www.w3.org/1999/xlink" x="0px" y="0px"
	 viewBox="0 0 512 295.9" style="enable-background:new 0 0 512 295.9;" xml:space="preserve">
<style type="text/css">
	.st0{fill:#FFFFFF;}
	.st1{fill:#BD0034;}
	.st2{fill:#1A237B;}
</style>
<g>
	<rect y="-2.8" class="st0" width="512" height="298.7"/>
	<polygon class="st1" points="342.8,105.2 512,10.4 512,-2.8 500.3,-2.8 307.4,105.2 	"/>
	<polygon class="st1" points="334.8,193.9 512,293 512,273.2 370.2,193.9 	"/>
	<polygon class="st1" points="0,19.9 151.5,105.2 187,105.2 0,0 	"/>
	<polygon class="st1" points="178.9,193.9 0,294.1 0,295.9 32.3,295.9 214.4,193.9 	"/>
	<polygon class="st2" points="477,-2.8 297.7,-2.8 297.7,97.6 	"/>
	<polygon class="st2" points="218.5,-2.8 40,-2.8 218.5,97.6 	"/>
	<polygon class="st2" points="512,105.2 512,36.6 390.4,105.2 	"/>
	<polygon class="st2" points="512,261.6 512,193.9 390.4,193.9 	"/>
	<polygon class="st2" points="50.1,295.9 218.5,295.9 218.5,201.4 	"/>
	<polygon class="st2" points="297.7,295.9 466.6,295.9 297.7,201.4 	"/>
	<polygon class="st2" points="0,193.9 0,264.7 125.8,193.9 	"/>
	<polygon class="st2" points="0,105.2 125.8,105.2 0,34.2 	"/>
	<polygon class="st1" points="234.4,-2.8 234.4,122.9 0,122.9 0,176.1 234.4,176.1 234.4,295.9 281.9,295.9 281.9,176.1 512,176.1 
		512,122.9 281.9,122.9 281.9,-2.8 	"/>
</g>
</svg>
