<?xml version="1.0" ?><!DOCTYPE svg  PUBLIC '-//W3C//DTD SVG 1.1//EN'  'http://www.w3.org/Graphics/SVG/1.1/DTD/svg11.dtd'><svg height="512px" style="enable-background:new 0 0 512 512;" version="1.1" viewBox="0 0 512 512" width="512px" xml:space="preserve" xmlns="http://www.w3.org/2000/svg" xmlns:xlink="http://www.w3.org/1999/xlink"><g id="office_x2C__university_x2C__reading_x2C__learning_x2C__study_x2C__notebook_x2C__education"><g><path d="M256.001,495.435c131.893,0,239.462-107.569,239.462-239.465    c0-131.837-107.569-239.404-239.462-239.404c-131.894,0-239.464,107.567-239.464,239.404    C16.537,387.865,124.107,495.435,256.001,495.435L256.001,495.435z" style="fill-rule:evenodd;clip-rule:evenodd;fill:#1C1C1C;"/><path d="M104.599,232.596l-87.105,41.032    c-0.057,0.614-0.057,1.234-0.113,1.849c5.436,67.488,38.788,127.019,88.566,167.095L454.711,278.34l-6.504-6.171l-5.827-0.728    l-19.449-38.229l-120.909-23.936L104.599,232.596z" style="fill-rule:evenodd;clip-rule:evenodd;fill:#0A0A0A;"/><path d="M104.599,232.596    c49.665-16.814,163.676-52.466,163.676,17.657c-0.057-70.289,115.753-38.115,159.08-19.171    c6.955,13.622,13.903,27.244,20.796,40.867c-48.71-6.447-97.476-12.896-146.242-19.341c0,6.333-0.057,12.611-0.057,18.89    c-22.982-13.677-45.459-14.52-67.377-0.057c0-6.222,0-12.443,0-18.724c-48.822,6.112-97.645,12.22-146.411,18.272    C93.556,257.709,99.106,245.936,104.599,232.596L104.599,232.596z" style="fill-rule:evenodd;clip-rule:evenodd;fill:#E6E6E6;"/><path d="M83.133,270.095l146.858-19.45h8.575v20.402    c19.564,0,39.074,0,58.636,0v-20.402h8.572c48.936,6.503,97.927,12.952,146.862,19.45c6.053,0.62,5.382,9.191,0,8.521    l-146.862-19.449c0,6.836,0,13.678,0,20.514c-25.276,0-50.504,0-75.783,0c0-6.836,0-13.678,0-20.514    c-48.935,6.504-97.927,12.945-146.858,19.449C77.804,279.286,77.021,271.272,83.133,270.095L83.133,270.095z" style="fill-rule:evenodd;clip-rule:evenodd;fill:#696969;"/><path d="M94.733,255.466c13.117-1.849,26.457,0,38.062,2.69    c-12.053-1.795-26.01-2.353-40.022,1.906C93.445,258.492,94.061,256.979,94.733,255.466L94.733,255.466z" style="fill-rule:evenodd;clip-rule:evenodd;fill:#848484;"/><path d="M262.56,255.97c-10.538-21.188-98.6-16.087-142.265-9.248    C154.6,239.939,256.113,226.991,262.56,255.97L262.56,255.97z" style="fill-rule:evenodd;clip-rule:evenodd;fill:#848484;"/><path d="M262.56,239.714c-18.441-39.91-64.742-18.889-107.904-14.123    C189.017,218.974,248.937,195.991,262.56,239.714L262.56,239.714z" style="fill-rule:evenodd;clip-rule:evenodd;fill:#848484;"/><path d="M133.187,257.373c2.187-1.347,4.596-1.29,7.008-1.234c2.13,0.057,4.204,0.113,5.996-0.896    c0.057-0.057,0.448-0.226,0.784-0.338l0,0c0.281-0.057,0.507-0.167,0.619-0.167l-0.056,0.784c0,0-0.113,0.056-0.282,0.112l0,0    c-0.338,0.112-0.617,0.226-0.674,0.281c-1.961,1.063-4.204,1.007-6.444,0.95c-2.243-0.054-4.542-0.11-6.56,1.124L133.187,257.373z    " style="fill:#848484;"/><path d="M274.276,242.013c25.333-39.966,55.603-16.141,114.795-11.378    C341.934,224.021,292.941,198.291,274.276,242.013L274.276,242.013z" style="fill-rule:evenodd;clip-rule:evenodd;fill:#848484;"/><path d="M274.276,253.729c25.333-39.966,93.779-10.595,152.915-5.887    C380.104,241.286,292.941,210.008,274.276,253.729L274.276,253.729z" style="fill-rule:evenodd;clip-rule:evenodd;fill:#848484;"/></g></g><g id="Layer_1"/></svg>